# xmcd
#
# Track frame offsets:
#	150
#	16423
#	30419
#	44943
#	60326
#	74880
#	89049
#	106453
#	120560
#	133322
#	146992
#	164594
#
# Disc length: 2458 seconds
#
# Revision: 1
# Processed by: cddbd v1.5.2PL0 Copyright (c) Steve Scherf et al.
# Submitted via: EasyCDDAExtractor 11.5.0.1
#
DISCID=bf09980c
DTITLE=João Luíz Corrêa - Campeirismo VII
DYEAR=2009
DGENRE=Gaúcho
TTITLE0=Quando Tapeia O Chapelão
TTITLE1=Vem Cá
TTITLE2=Neguinha Da Janela
TTITLE3=Pra Quem Tem Alma De Galpão
TTITLE4=Borracheira
TTITLE5=Na Vaneira
TTITLE6=Noites De Inverno
TTITLE7=Vaneirão Alegria Do Povão
TTITLE8=Xote Nativo
TTITLE9=Tropilhas De Saudade
TTITLE10=Dos Fandangos Da Fronteira
TTITLE11=Recuerdos Da 28
EXTD=
EXTT0=
EXTT1=
EXTT2=
EXTT3=
EXTT4=
EXTT5=
EXTT6=
EXTT7=
EXTT8=
EXTT9=
EXTT10=
EXTT11=
PLAYORDER=
